PathFileType	4	(X/Y/Z)	Patient4_TMGait_0pt4_03_left_24.trc.trc
DataRate	CameraRate	NumFrames	NumMarkers	Units	OrigDataRate	OrigDataStartFrame	OrigNumFrames
72.164948453608	72.164948453608	6	33	mm	72.164948453608	124	       141
Frame#	Time	Sacral			L.Shoulder			Chest			R.Shoulder			Neck			R.ASIS			L.ASIS			R.Thigh.Superior			R.Thigh.Lateral			R.Thigh.Inferior			R.Patella			L.Thigh.Superior			L.Thigh.Lateral			L.Thigh.Inferior			L.Patella			L.Shank.Superior			L.Shank.Lateral			L.Shank.Inferior			R.Shank.Superior			R.Shank.Lateral			R.Shank.Inferior			R.Heel			R.Midfoot.Superior			R.Midfoot.Lateral			R.Toe			L.Heel			L.Midfoot.Lateral			L.Midfoot.Superior			L.Toe			L.Elbow			L.Wrist			R.Elbow			R.Wrist			
		X1	Y1	Z1	X2	Y2	Z2	X3	Y3	Z3	X4	Y4	Z4	X5	Y5	Z5	X6	Y6	Z6	X7	Y7	Z7	X8	Y8	Z8	X9	Y9	Z9	X10	Y10	Z10	X11	Y11	Z11	X12	Y12	Z12	X13	Y13	Z13	X14	Y14	Z14	X15	Y15	Z15	X16	Y16	Z16	X17	Y17	Z17	X18	Y18	Z18	X19	Y19	Z19	X20	Y20	Z20	X21	Y21	Z21	X22	Y22	Z22	X23	Y23	Z23	X24	Y24	Z24	X25	Y25	Z25	X26	Y26	Z26	X27	Y27	Z27	X28	Y28	Z28	X29	Y29	Z29	X30	Y30	Z30	X31	Y31	Z31	X32	Y32	Z32	X33	Y33	Z33	

124	33.174428571429	834.597700868457	1000.199153565050	506.267350417134	982.041870229987	1426.477819218436	304.567120078135	1110.599928465168	1358.274898565355	446.325189293229	1057.016075079571	1430.038705020542	632.557871263973	988.497511522302	1487.629303531375	461.170210981064	1074.652435882323	934.736993159504	596.372513091784	1028.641132793870	950.648679549983	324.109752073196	1070.305747675721	723.103264081858	570.603974660545	968.420747067049	628.619170432274	637.921316956919	1024.233234857165	563.004485291784	555.899001855614	1005.801203244049	477.860323945225	561.625902677166	1099.457133788133	758.475755368902	345.626275233175	1036.593964708506	632.609593294795	271.574294114779	1143.145096403430	571.496825022352	323.930613735209	1166.909656435352	508.035081189310	319.673362337758	1149.041810612132	437.775630701799	309.092704219641	1078.334792712883	309.318973891525	261.541515403014	1168.976829519253	208.725079462708	306.728113119230	965.850144352345	395.242451945882	569.372326394886	884.270693331721	301.578927115587	635.730327933508	909.234440868345	202.395827910956	568.447686655111	758.453541138995	44.488407065759	543.060561332309	930.913572871634	95.560845257291	573.477724714689	843.759365350194	36.742546394510	614.518236592598	1051.713371141384	41.460405024059	597.292619463865	1083.107381582905	39.521996814763	349.392822330141	1151.590927888477	38.645421770382	264.658369666612	1231.530376587274	106.420055126689	283.470221041719	1359.532989066611	63.364800058126	247.097197689274	853.090837190984	1092.550745875269	220.802499891878	852.901122772383	830.711532796470	256.942226409674	1184.372681364744	1111.663861702382	746.812324601345	1428.177981677664	1152.817834997551	695.748779077520	
125	33.188285714286	835.397911425879	999.407020802907	502.933500792420	982.714707629733	1425.490108801005	301.046547208940	1110.927841211187	1357.873996041923	443.411916424413	1056.418179891138	1429.719649057362	629.389802581600	988.574911344107	1487.009257231038	457.660285957794	1075.309407927531	934.155696539726	594.020927243480	1030.198255602574	949.871382632044	321.809629365714	1070.879741242483	722.255214320617	568.593355411727	968.409418480895	628.119578056053	635.757726854218	1024.241516217629	562.071570256717	554.070370078178	1005.174544313895	476.572523792192	559.769776392066	1101.144404217918	757.111117048378	344.272756611512	1037.341241159727	631.574106229935	270.856826007927	1143.231567067312	570.339964607860	324.146725914629	1165.902679615511	505.977317960422	320.205736475934	1147.563508464971	435.352301551828	309.297075029929	1075.268496020330	307.651443344390	261.943746608206	1164.145873944995	205.992271123502	308.064810337399	964.261044928214	394.330075124169	567.866254463097	881.597137132607	301.866572465218	634.650398288440	905.282420680254	202.112454818105	567.853765464052	752.982587540611	45.147448738488	543.200901924436	925.610110869696	95.640050046813	573.492935362766	838.304318481751	36.938588490382	614.521842754113	1046.258607970179	41.170334852580	597.370037844775	1075.031714507939	38.869438695893	350.930496828164	1143.509212010619	37.214586983889	266.103259485794	1224.993509866267	103.029779909562	285.678839775661	1352.343518640350	57.347128105191	248.973482035849	855.431195796498	1090.866244259519	217.250065415073	856.928307681776	828.854743786627	252.108685636774	1182.566747418953	1110.451576997984	743.884409625859	1427.761396333630	1146.800935291464	694.228984998286	
126	33.202142857143	836.167444404362	998.855935140671	499.601122610649	983.497376609432	1424.648198666356	297.393635994195	1111.368596901738	1357.598318377551	440.347197813706	1056.031094814940	1429.630702517026	626.056514248903	988.801743766500	1486.576187297722	453.990698377795	1075.946681081435	933.702068750111	591.477222816535	1031.580347282446	949.401882468879	319.352321122901	1071.504675447747	721.547102562382	566.350646457352	968.617755384479	627.703597008693	633.434955192100	1024.495901711595	561.236319386048	552.055869700936	1004.887635320378	475.299723659358	557.797167347341	1102.914818891446	756.393705140431	342.765739425880	1038.490011234969	631.178414729911	269.838023876709	1143.731014566863	569.882261417658	324.053066011537	1165.205783937366	504.543527028548	320.411035484996	1146.535423523028	433.504495894012	309.127338288362	1072.836564406536	306.585679245883	261.663768552808	1159.800832692319	203.868484184871	308.920560574253	962.917951785971	393.457631057434	566.256229970979	879.127259911317	302.279041007006	633.489680209159	901.458519555175	201.937604179062	567.235584256025	747.534083120035	46.064659420723	543.364145817987	920.403160139465	95.767670301680	573.535112844598	832.887202507680	37.243501350818	614.541863205148	1040.848131322270	40.830263624817	597.454557912083	1067.589577874618	38.454305848728	351.846912841293	1136.126011140654	36.266682891584	266.993074207992	1218.791132884369	100.524182546555	287.324461826541	1345.659946539673	52.812420883778	250.430681236141	858.384246979934	1089.084637951315	213.507189321391	861.640258055642	826.875729074969	246.364638974001	1180.050522869025	1109.179183119936	741.115495233020	1426.721453165473	1139.719559932456	692.956755467429	
127	33.216000000000	836.907234311439	998.573537112430	496.278965368437	984.353254892307	1423.996033411298	293.652276375556	1111.907683961100	1357.468484599574	437.144725528885	1055.882320738394	1429.793833207337	622.577399056337	989.171960292538	1486.354841882611	450.200727116630	1076.555237273548	933.413378768100	588.734416497694	1032.765960354334	949.258489990860	316.704042506188	1072.140014794252	721.026281435489	563.884108299042	969.019313318859	627.416355773552	630.978199494379	1024.984413287668	560.543791478861	549.890181235228	1004.962419554837	474.072261775033	555.791002795541	1104.711357470064	756.349296509222	341.039650580091	1040.001509014540	631.380924462403	268.495893480629	1144.625955327438	570.060249436542	323.530953696242	1164.824081935428	503.699198432387	320.202639955979	1145.933691448127	432.209978894801	308.584217530771	1071.004938921176	306.089601352859	260.767288714324	1155.929314789438	202.341270537816	309.326289259720	961.823917352629	392.663351221125	564.598769344259	876.852314328412	302.858647257440	632.278835153597	897.778498411092	201.916224325105	566.627622948738	742.119667484336	47.304062900243	543.552410985566	915.317298938419	95.954720934297	573.617850247010	827.513364499405	37.687944427305	614.582162405250	1035.482689070449	40.445102344146	597.543751600379	1060.837895219942	38.247044315862	352.240646914489	1129.469877353093	35.736260825814	267.405271580297	1212.947840734738	98.868974697628	288.404110439546	1339.499527368184	49.738616596879	251.436031008816	861.913951217547	1087.284226145124	209.559736902367	867.094900616471	824.870805037860	239.777676563870	1176.847831170363	1107.891512524997	738.480957635813	1425.004018425969	1131.565324601362	691.935814498890	
128	33.229857142857	837.626620221924	998.557602847364	492.947809452190	985.240867662185	1423.560818966096	289.857232212079	1112.519669586593	1357.498139464503	433.819361421883	1055.962475028960	1430.208172211967	618.973468508836	989.663834232159	1486.352184178542	446.325233012974	1077.133063321530	933.315618590740	585.785131513811	1033.769831038044	949.429722550219	313.831393392376	1072.772442390086	720.728614848234	561.209436105831	969.613255026841	627.287872181584	628.415238794657	1025.727518823695	560.028428955048	547.612520318992	1005.450032100127	472.909659932582	553.838833060620	1106.484777742743	756.921113420396	339.036484969010	1041.781499970973	632.065645065952	266.839679418004	1145.836186434622	570.721027150911	322.508406257686	1164.715032728915	503.334324075257	319.555471832226	1145.671715693287	431.380172796237	307.716736923541	1069.655519962679	306.066824769709	259.395837348169	1152.444107677343	201.330384622156	309.368979789556	961.011006385615	391.975722475514	562.954171138190	874.786717867182	303.644377436426	631.049514213157	894.273856040103	202.088693375278	566.064471838274	736.759663761913	48.935614523672	543.766713991724	910.378195576922	96.211160290380	573.752295823871	822.189922110840	38.309698071266	614.645922800872	1030.156135882259	40.024845519961	597.633745024561	1054.715315651747	38.199912161888	352.243165433108	1123.454627010356	35.529607912162	267.451220116876	1207.417761078922	97.942135824555	288.986197509542	1333.792604328607	47.942293823686	252.018554694488	865.972923247390	1085.536021717907	205.381277704426	873.374130962471	822.937862380849	232.440759857592	1172.989747884336	1106.629985840752	735.950255971243	1422.532921154175	1122.327488510523	691.161903261489	
129	33.243714285714	838.338203809089	998.779124871294	489.563517152146	986.123568243179	1423.352155698876	286.027695331371	1113.172197659912	1357.694486671762	430.385664475782	1056.223953670315	1430.851001099500	615.264634053753	990.244232376345	1486.558893480406	442.388270309821	1077.681786176976	933.420916621110	582.624559281522	1034.639217552966	949.878183234297	310.711429132841	1073.422310460920	720.674801452309	558.350006400116	970.430605743825	627.328006006346	625.773366332723	1026.784849128526	559.710537119624	545.262919313271	1006.435427568030	471.818477094832	552.021861645686	1108.195467162147	757.973507929697	336.709522426578	1043.671534818361	633.059753941620	264.904719053126	1147.217153407413	571.653065971548	320.966860704438	1164.785898806366	503.295139366196	318.504679890232	1145.611251047241	430.887178493740	306.602602247649	1068.615125483068	306.379480921492	257.727142318378	1149.215485581132	200.714959912611	309.162523080227	960.546951924018	391.411783575783	561.380045335758	872.974927729529	304.671847883578	629.829912947023	890.995632905827	202.490919312742	565.577104997348	731.486779117799	51.039020010340	544.007022283803	905.613915703764	96.546544698304	573.945159046490	816.927722370120	39.157518985812	614.734706351374	1024.854631067478	39.583450353146	597.719433118640	1049.087632917671	38.258668061434	351.992872982096	1117.927359300729	35.544461806302	267.252389838105	1202.116128915482	97.571729128010	289.182596022365	1328.421473515905	47.141955943682	252.250243975162	870.508063036487	1083.899852544002	200.935952770618	880.569888184366	821.172396194689	224.458715774201	1168.511633118092	1105.429490235437	733.488119455340	1419.204167894254	1111.996432530219	690.619545270161	
